<svg xmlns="http://www.w3.org/2000/svg" width="184" height="13" fill="none"><g fill="#231F20" clip-path="url(#a)"><path d="M126.379 3.337c0 1.9 1.177 2.727 2.727 3.293l1.68.602c1.039.396 1.632.75 1.632 1.652 0 1.036-.929 1.505-2.255 1.505-1.326 0-2.629-.49-3.686-1.337v2.055c.812.564 2.134 1.01 3.686 1.01 2.363 0 4.164-1.163 4.164-3.268 0-1.673-.833-2.692-2.647-3.347l-1.873-.676c-.967-.34-1.517-.679-1.517-1.526 0-.937.876-1.387 2.047-1.387 1.361 0 2.419.506 3.386 1.242V1.137c-.931-.6-2.121-.937-3.428-.937-2.133 0-3.916 1.105-3.916 3.137ZM141.404.397h-1.971v11.544h1.971V.397ZM105.877.397h-1.973v11.544h1.973V.397ZM149.136 2.126h2.41c2.438 0 3.742 1.556 3.742 4.04 0 2.482-1.304 4.028-3.742 4.028h-2.41V2.126ZM147.167.397v11.544h4.453c3.427 0 5.643-2.257 5.643-5.775 0-3.517-2.215-5.768-5.643-5.768h-4.453ZM161.427.397V11.94h7.042v-1.746h-5.112V6.612h4.584v-1.71h-4.584V2.127h5.112V.397h-7.042ZM176.323 2.09h2.208c1.307 0 2.045.697 2.045 1.768 0 1.071-.738 1.767-2.045 1.767h-2.208V2.091ZM174.358.398V11.94h1.965V7.256h1.398l4.045 4.684H184l-4.177-4.757c1.836-.284 2.698-1.393 2.698-3.326 0-2.26-1.552-3.461-3.952-3.461h-4.211v.001ZM26.658 3.198c0 1.93 1.183 2.77 2.746 3.344l1.697.61c1.048.403 1.639.765 1.639 1.682 0 1.051-.933 1.53-2.269 1.53-1.335 0-2.65-.497-3.717-1.357v2.083c.82.573 2.155 1.03 3.717 1.03 2.385 0 4.196-1.183 4.196-3.323 0-1.701-.839-2.731-2.67-3.4l-1.886-.688c-.974-.344-1.526-.688-1.526-1.547 0-.955.878-1.414 2.06-1.414 1.372 0 2.44.514 3.412 1.26V.964c-.935-.612-2.135-.956-3.451-.956-2.155 0-3.948 1.127-3.948 3.19ZM86.252 3.19c0 1.93 1.183 2.77 2.746 3.343l1.697.612c1.048.4 1.64.765 1.64 1.681 0 1.05-.934 1.528-2.268 1.528-1.334 0-2.651-.497-3.719-1.356v2.082c.82.572 2.155 1.031 3.719 1.031 2.383 0 4.194-1.185 4.194-3.324 0-1.7-.839-2.732-2.669-3.4l-1.887-.688c-.972-.344-1.525-.687-1.525-1.547 0-.955.877-1.414 2.059-1.414 1.374 0 2.441.516 3.413 1.26V.955C92.718.344 91.517 0 90.202 0c-2.156 0-3.948 1.127-3.948 3.19M74.277 3.19c0 1.93 1.182 2.77 2.745 3.343l1.697.612c1.049.4 1.64.765 1.64 1.681 0 1.05-.934 1.528-2.268 1.528-1.334 0-2.651-.497-3.719-1.356v2.082c.82.572 2.155 1.031 3.719 1.031 2.384 0 4.194-1.185 4.194-3.324 0-1.7-.838-2.732-2.669-3.4l-1.888-.688c-.972-.344-1.525-.687-1.525-1.547 0-.955.876-1.414 2.057-1.414 1.374 0 2.442.516 3.414 1.26V.955C80.74.344 79.537 0 78.223 0c-2.155 0-3.948 1.127-3.948 3.19M62.663.198v11.73h7.093v-1.774h-5.15V6.515h4.618V4.778h-4.618V1.955h5.15V.198h-7.093ZM1.926 6.77h2.517c1.335 0 2.059.65 2.059 1.72 0 1.068-.724 1.718-2.06 1.718H1.927V6.77Zm0-4.851H4.08c1.354 0 2.078.477 2.078 1.584 0 1.108-.725 1.625-2.078 1.625H1.926v-3.21ZM0 .199v11.73h4.481c2.44 0 3.966-1.166 3.966-3.362 0-1.242-.8-2.33-1.907-2.694.859-.306 1.526-1.222 1.526-2.484C8.066 1.288 6.54.2 4.099.2H0ZM41.752.198H39.77v11.73h1.983V.198ZM20.1.198v6.84c0 2.254-.953 3.305-2.707 3.305s-2.708-1.051-2.708-3.305V.198h-1.983v7.05c0 3.228 1.907 4.872 4.69 4.872 2.785 0 4.692-1.643 4.692-4.852V.198H20.1ZM55.458.199v7.499L47.41.016v11.913h1.91v-7.63l8.043 7.812V.2h-1.905ZM111.528 11.94h1.897V4.431l7.984 7.685V.396h-1.892v7.38L111.528.217v11.721Z"/></g><defs><clipPath id="a"><path fill="#fff" d="M0 0h184v12.12H0z"/></clipPath></defs></svg>