<svg xmlns="http://www.w3.org/2000/svg" width="113" height="57" fill="none"><path fill="#fff" d="M27.762 18.573c-.686-1.713-2.358-3.572-5.487-3.308-3.987.432-5.23 4.254-4.627 6.533-1.598-1.075-4.288-1.547-6.644.47-3.044 3.05-1.416 7.176.257 8.165-1.844-.17-4.757 1.076-5.402 4.324-.686 4.046 2.398 6.405 5.402 6.405h33.295c3.473 0 5.4-3.005 5.184-5.839-.34-3.698-3.724-5.117-5.57-4.811 1.541-.861 3.602-4.903.47-8.08-2.486-2.365-5.656-1.504-6.77-.473.602-1.975-.376-6.059-4.417-6.705a7.225 7.225 0 0 0-.802-.048c-3.078 0-4.463 2.251-4.888 3.358"/><path fill="#F37021" d="M11.556 22.913c-1.757 1.592-2.398 5.197.77 7.307l12.646 8.675-6.131-14.047c-1.285-3.315-4.8-4.037-7.286-1.936"/><path fill="#CC004C" d="M22.442 16.083c-2.055.043-5.14 2.49-3.76 6.228l6.343 14.955 2.227-15.73c.517-3.91-2.443-5.715-4.793-5.454"/><path fill="#6460AA" d="M28.231 20.936h1.2s.639 0 .727.301c-.472.376-1.757.433-1.585 2.493l2.015 13.533 6.297-14.995c1.288-3.348-1.415-6.144-3.815-6.23l-.342-.016c-2.161 0-4.62 1.565-4.5 4.91"/><path fill="#0089D0" d="m36.634 24.976-5.957 13.878 12.64-8.721c2.914-2.068 2.444-5.371.814-7.005-.685-.768-1.94-1.363-3.271-1.363-1.571 0-3.252.834-4.23 3.21"/><path fill="#0DB14B" d="m41.903 32.108-11.872 8.293h14.62c3.007 0 4.926-3.101 4.069-5.92-.564-1.785-2.272-3.185-4.243-3.196-.83 0-1.711.25-2.574.823Z"/><path fill="#FCB711" d="M11.215 40.4h14.403l-11.875-8.293c-2.744-1.763-5.827-.73-6.942 2.194-.943 3.348 1.413 6.109 4.415 6.109"/><path fill="#292526" d="M51.342 28.152c0 1.79 1.464 5.05 7.053 5.05 5.153 0 6.78-2.365 6.78-3.45h-3.989s-.19 1.431-2.439 1.431-2.86-1.88-2.86-2.967c0-1.087.609-2.86 2.86-2.86 2.252 0 2.44 1.247 2.44 1.247h3.989c0-1.086-1.194-3.418-6.781-3.418s-7.053 3.472-7.053 4.965m41.843 0c0 1.791 1.466 5.05 7.053 5.05 5.153 0 6.781-2.364 6.781-3.449h-3.987s-.191 1.432-2.442 1.432c-2.25 0-2.862-1.88-2.862-2.967 0-1.087.611-2.86 2.862-2.86 2.251 0 2.442 1.247 2.442 1.247h3.987c0-1.086-1.194-3.418-6.781-3.418s-7.053 3.473-7.053 4.966Zm-17.103-4.786v6.062l-4.643-6.062h-5.224v9.601h3.572v-6.131l4.561 6.131h5.305v-9.6H76.08Zm11.465 7.299v.012h-2.973v-1.763h2.984v-.003c.637 0 1.152.392 1.152.874s-.515.871-1.152.871m-2.956-5.45h2.876v.003c.487 0 .883.32.883.714 0 .395-.394.715-.883.715v.004h-2.885l.009-1.437Zm5.886 2.629c.652 0 2.015-.757 2.015-2.223 0-2.086-3.887-2.274-4.483-2.274H80.86v9.601h7.161c3.445 0 4.829-1.088 4.829-2.906 0-1.817-2.35-2.199-2.35-2.199l-.01.001Z"/></svg>