<svg xmlns="http://www.w3.org/2000/svg" width="57" height="27" fill="none"><path fill="#EC1C2E" d="M22.616 0c-2.395-.036-4.52 1.9-4.52 4.703v12.62c.002.454-.338.857-.832.857H13.32c-8.536.01-7.773-10.913-.508-10.923 3.23-.004 4.359 0 4.359 0v-3.06h-4.514c-2.828.004-4.97 1.082-6.41 2.687-1.44 1.606-2.178 3.745-2.177 5.87.001 2.046.7 4.17 2.157 5.78 1.458 1.609 3.674 2.71 6.738 2.71h7.445c.43 0 .795-.365.795-.79V5.036c-.004-.806.414-1.454 1.086-1.669.653-.207 1.369.063 1.8.677l.003.003.001.003c1.047 1.714 3.661 5.92 6.023 9.712a8575.168 8575.168 0 0 0 4.12 6.606l.384.617c.174.246.393.339.576.281a.412.412 0 0 0 .246-.225c.061-.12.097-.287.097-.487V5.038c-.002-.803.413-1.453 1.088-1.666.648-.208 1.367.062 1.794.677l.002.003.001.002a2083.28 2083.28 0 0 0 6.027 9.71c2.36 3.79 4.471 7.17 4.504 7.223.171.245.404.343.599.282a.43.43 0 0 0 .252-.228c.063-.12.1-.286.1-.485V.096h-3.087v11.947S44.909 8.8 41.649 3.204c-3.189-5.482-9.207-3.216-9.21 1.501v7.336S30.574 8.796 27.317 3.2C26.02.974 24.255.025 22.616 0Zm-9.401.095C-4.528.093-4.36 25.371 13.454 25.383h6.96c2.996.002 4.92-1.774 4.917-5.049v-6.403s3.904 6.473 5.436 9.006c2.606 4.308 8.913 3.46 8.898-1.92v-7.081s3.903 6.47 5.437 9.007C47.71 27.249 54.016 26.4 54 21.019V.095h-3.083V20.556c.002.967-.54 1.507-1.056 1.67-.63.201-1.316-.067-1.742-.678l-.001-.002-.002-.002c-.088-.14-8.443-13.52-10.532-16.938-.173-.246-.427-.347-.652-.276-.234.075-.382.322-.382.708v15.513c.002.971-.53 1.51-1.045 1.676-.621.195-1.296-.073-1.72-.683v-.002l-.001-.001A1829.38 1829.38 0 0 1 23.25 4.6c-.173-.245-.43-.345-.655-.273-.236.075-.386.322-.384.705v15.42c0 .99-.811 1.797-1.802 1.797h-7.446c-3.387 0-5.868-1.23-7.495-3.034-1.627-1.804-2.403-4.176-2.405-6.462-.002-2.371.819-4.758 2.431-6.556s4.017-3.003 7.16-3.007h4.516V.095h-3.956Z"/></svg>