<svg xmlns="http://www.w3.org/2000/svg" width="185" height="26" fill="none"><g clip-path="url(#a)"><path fill="#1A1A1A" d="M13.9 3.3c0-2-1.9-2.6-3.4-2.5v.3c.9 0 1.7.3 1.7 1 0 .4-.3 1-1.2 1-.7 0-2.2-.4-3.3-.8-1.4-.5-2.6-.9-3.6-.9-2 0-3.4 1.5-3.4 3.3 0 1.5 1.1 2 1.6 2.2l.1-.2c-.4-.3-.7-.5-.7-1.1 0-.4.4-1.1 1.4-1.1.9 0 2.1.4 3.7.9 1.4.4 2.9.7 3.7.8v3.1L9 10.6v.1l1.5 1.3v4.3c-.8.5-1.7.6-2.5.6-1.5 0-2.8-.4-3.9-1.6l4.1-2V6.5L3.1 8.7c.5-1.3 1.6-2.2 2.7-2.9l-.1-.2c-3 .8-5.7 3.6-5.7 7 0 4.1 3.3 7.1 7.1 7.1 4.1 0 6.7-3.2 6.6-6.6h-.2c-.6 1.3-1.5 2.5-2.6 3.2v-4.2l1.6-1.3v-.1l-1.6-1.3V6.2c1.4 0 3-1 3-2.9ZM5.1 14.5l-1.2.5c-.7-.9-1.1-2.1-1.1-3.8 0-.7.1-1.6.3-2.2l2.1-.9-.1 6.4Zm10.7 2.2-1.3 1 .2.2.6-.5 2.3 2.1 3-2-.1-.2-.8.5-1-1V9.9l.8-.6 1.7 1.4v6.1c0 3.8-.8 4.4-2.6 5.1v.3c2.8.1 5.4-.8 5.4-5.7V9.8l.9-.7-.2-.2-.7.6-2.5-2.1-2.9 2.2V1.2h-.2l-3.6 2.4v.2c.4.2 1 .4 1 1.6v11.3Zm18.4-1.1-2.5 1.9-2.6-2v-1.2l4.8-3.2V11l-2.4-3.6-5.2 2.8v6.6l-1 .8.2.2.9-.7 3.4 2.5 4.5-3.6-.1-.4Zm-5-1.7V9l.2-.1 2.2 3.5-2.4 1.5ZM53.4 2.4c0-.3-.1-.6-.2-.9H53c-.3.8-.7 1.3-1.7 1.3-.9 0-1.5-.5-1.9-.9l-2.9 3.3.2.2.8-.9c.6.5 1.1.9 2.5 1v8.4L44.2 3.6c-.5-.8-1.2-1.9-2.6-1.9-1.6 0-3 1.4-2.8 3.7h.2c.1-.6.4-1.3 1.1-1.3.6 0 1.1.5 1.3 1v3.3c-1.8 0-3 .8-3 2.3 0 .8.4 2.1 1.7 2.3v-.2c-.2-.2-.3-.4-.3-.7 0-.6.4-.9 1.1-.9h.5v4.3c-2.1 0-3.8 1.2-3.8 3.2 0 1.9 1.7 2.8 3.4 2.7v-.2c-1.1-.1-1.7-.6-1.7-1.3 0-.9.6-1.3 1.4-1.3.8 0 1.5.5 2 1.1l2.9-3.2-.2-.2-.7.7c-1.1-1-1.7-1.3-3-1.5V5.4l8.1 14.1h.6V5.4c1.6-.1 3-1.2 3-3Zm7.3 13.2-2.5 1.9-2.6-2v-1.2l4.8-3.2V11L58 7.4l-5.2 2.8v6.6l-1 .8.2.2.9-.7 3.4 2.5 4.5-3.6-.1-.4Zm-5-1.7V9l.2-.1 2.2 3.5-2.4 1.5Zm21.5-5.5-.8.6-1.9-1.6-2.2 2 .9.9v7.6l-2.4-1.6v-6.2l.8-.6-2.3-2.2-2.2 2 .9.9v7.2l-.3.2-2.1-1.5V10c0-1.4-.7-1.8-1.6-2.3-.7-.5-1.1-.8-1.1-1.5 0-.6.6-.9.9-1.1v-.2c-.8 0-2.9.8-2.9 2.8 0 1 .5 1.4 1 1.9s1 .9 1 1.8v5.8l-1.3.8.2.2 1-.8 2.7 2.1 2.5-1.7 2.8 1.7 5.3-3.1V9.6l1.3-1-.2-.2Zm18.6-5.5-1 .9-2.3-2-3.3 2.4V2h-.3l.1 16.3c-.3 0-1.2-.2-1.9-.4L87 4.3c0-1-.7-2.4-2.5-2.4s-3 1.4-3 2.8h.3c.1-.6.4-1.1 1-1.1s1.1.4 1.1 1.7v3.9c-1.9.2-2.9 1.2-2.9 2.4 0 .8.4 2 1.7 2.1v-.2c-.4-.2-.5-.5-.5-.7 0-.6.6-.8 1.3-.8h.4v6.2c-1.5.5-2.1 1.6-2.1 2.8 0 1.7 1.3 2.9 3.3 2.9 1.4 0 2.6-.2 3.9-.5 1-.2 2.3-.5 2.9-.5.8 0 1.1.4 1.1.9 0 .7-.3 1-.7 1.1v.2c1.7-.3 2.6-1.3 2.6-2.8 0-1.5-1.5-2.4-3.1-2.4-.8 0-2.5.3-3.7.6-1.4.3-2.8.5-3.2.5-.7 0-1.6-.3-1.6-1.3 0-.8.7-1.5 2.4-1.5.9 0 2 .1 3.1.4 1.2.3 2.3.6 3.4.6 1.5 0 2.8-.5 2.8-2.7V4.1l1.2-1-.4-.2Zm-4.1 6.2c-.3.3-.7.6-1.2.6-.6 0-1-.3-1.2-.6V4.6l1-.7 1.4 1.3v3.9Zm0 3c-.2-.2-.7-.5-1.2-.5s-1 .3-1.2.5V9.5c.2.2.7.5 1.2.5s1-.3 1.2-.5v2.6Zm0 4.7c0 .8-.6 1.6-1.6 1.6h-.8v-5.9c.2-.2.7-.6 1.2-.6s.9.3 1.2.6v4.3Zm13.7-7.1-3.3-2.3-4.9 2.8v6.6l-1 .8.1.2.8-.6 3.2 2.4 5-3V9.7h.1Zm-5.3 6.3V8.8l2.5 1.8v7.2l-2.5-1.8ZM115 7.6h-.2c-.3.2-.6.4-.9.4-.4 0-.9-.2-1.1-.5h-.2l-1.7 1.9-1.7-1.9-3 2.1.1.2.8-.5 1 1.1v6.3l-1.3 1 .2.2.6-.5 2.4 2.1 3.1-2.1-.1-.2-.9.5-1.2-1.1v-7c.5.6 1.1 1 1.8 1 1.4 0 2.2-1.5 2.3-3Zm12.1 9.7-3.4 2.3-4.6-7 3.3-5.1h.2c.4.4 1.1.8 1.7.8.7 0 1.2-.4 1.5-.8h.2c-.1 2-1.5 3.2-2.5 3.2-1.1 0-1.6-.5-2.1-.8l-.3.5 5 7.4 1-.6v.1Zm-11-.6-1.3 1 .2.2.6-.5 2.3 2.1 3-2-.2-.2-.8.5-1-1V1.2h-.2L115 3.7v.2c.4.2 1 .3 1 1.5v11.3h.1Zm27.7-13.4c0-2-1.9-2.6-3.4-2.5v.3c.9 0 1.7.3 1.7 1 0 .4-.3 1-1.2 1-.7 0-2.2-.4-3.3-.8-1.3-.4-2.5-.8-3.5-.8-2 0-3.4 1.5-3.4 3.3 0 1.5 1.1 2 1.6 2.2l.1-.2c-.3-.2-.6-.4-.6-1 0-.4.4-1.1 1.4-1.1.9 0 2.1.4 3.7.9 1.4.4 2.9.7 3.7.8v3.1l-1.5 1.3v.1l1.5 1.3v4.3c-.8.5-1.7.6-2.5.6-1.5 0-2.8-.4-3.9-1.6l4.1-2v-7l-5.1 2.3c.5-1.3 1.6-2.2 2.7-2.9l-.1-.2c-3 .8-5.7 3.6-5.7 7 0 4.1 3.3 7.1 7.1 7.1 4.1 0 6.7-3.2 6.6-6.6h-.2c-.6 1.3-1.5 2.5-2.6 3.2v-4.2l1.6-1.3v-.1L141 9.5V6.2c1.2 0 2.8-1 2.8-2.9Zm-8.7 11.2-1.2.6c-.7-.9-1.1-2.1-1.1-3.8 0-.7.1-1.6.3-2.2l2.1-.9-.1 6.3Zm12.1-12.1h-.1l-2 1.7v.1l1.7 1.9h.2l2-1.7v-.1l-1.8-1.9Zm3.1 14.9-.8.5-1-1v-7l1-.7-.2-.2-.7.6-1.7-2.1-2.9 2 .2.3.7-.5.9 1.1v6.5l-1.3 1 .1.2.7-.5 2.2 2 3-2-.2-.2Zm16.8-.2-.7.5-1.1-1V9.8l1-.8-.2-.2-.9.7-2.2-2.1-3 2.1-2.3-2.1-2.9 2.1-1.8-2.1-2.9 2 .1.3.7-.5 1 1.1v6.5l-.8.8 2.3 1.9 2.2-2-.9-.9V9.8l.9-.6 1.6 1.4v6.1l-.8.8 2.3 1.9 2.2-2-.9-.9V9.8l.8-.5 1.7 1.4v6l-.7.7 2.3 2.1 3.1-2.1-.1-.3Zm8.7-1.5-2.5 1.9-2.6-2v-1.2l4.8-3.2V11l-2.4-3.6-5.2 2.8V17l3.5 2.5 4.5-3.6-.1-.3Zm-5-1.7V9l.2-.1 2.2 3.5-2.4 1.5ZM185 13l-1.9-1.5c1.3-1.1 1.8-2.6 1.8-3.7v-.6h-.2c-.2.5-.6 1-1.4 1-.8 0-1.3-.4-1.8-1L177 9.7v3.7l1.7 1.3c-1.7 1.5-2 2.6-2 3.3 0 1 .5 1.7 1.3 2.1l.1-.2c-.2-.2-.4-.3-.4-.8 0-.3.4-.8 1.2-.8 1 0 1.6.7 1.9 1l4.4-2.6V13h-.2Zm-1.1-3c-.7 1.2-2.2 2.4-3.1 3l-1.1-.9V8.6c.4 1 1.5 1.8 2.6 1.8.7 0 1.1-.1 1.6-.4Zm-1.7 8c-.5-1.1-1.7-1.9-2.9-1.9-.3 0-1.1 0-1.9.5.5-.8 1.8-2.2 3.5-3.2l1.2 1V18h.1Z"/></g><defs><clipPath id="a"><path fill="#fff" d="M0 0h185v26H0z"/></clipPath></defs></svg>