<svg xmlns="http://www.w3.org/2000/svg" width="198" height="17" fill="none"><g clip-path="url(#a)"><path fill="#1C1C21" d="M196.311 14.427c-.574 0-1.053.479-1.053 1.125s.479 1.124 1.053 1.124 1.052-.478 1.052-1.124c0-.646-.478-1.125-1.052-1.125Zm-38.09 2.177h4.833v-.43l-.526-.12c-.479-.12-.695-.383-.695-1.053V8.494h1.125c.694 0 1.053.167 1.101 1.627l.119 3.062c.096 2.751.886 3.517 2.226 3.517 1.363 0 1.722-.933 1.722-2.249v-.55h-.503v.406c0 .886-.119 1.508-.454 1.508-.311 0-.335-.24-.407-1.34l-.143-2.105c-.192-2.824-.551-3.805-2.632-4.188 1.986-.526 3.206-1.985 3.206-4.067 0-2.704-2.129-3.996-4.163-3.996h-8.159V.55l.455.096c.861.191.885.646.885 2.584v9.522c0 2.13-.598 3.159-1.962 3.159-1.22 0-1.89-.599-1.89-2.92V1.675c0-.67.215-.861.742-.981l.646-.144V.12h-5v.43l.525.144c.479.143.646.335.646 1.005v11.125c0 2.512 1.46 3.9 3.685 3.9s3.326-1.388 3.326-3.972V2.368c0-1.291.263-1.746 1.315-1.746.838 0 1.197.287 1.197 1.077V15c0 .67-.215.91-.694 1.03l-.526.143v.43ZM190.329 1.7c0-.67.216-.885.694-.981l.646-.144V.119h-4.977V.55l.527.144c.479.143.694.335.694 1.005v13.398c0 .646-.263 1.005-1.005 1.005-.862 0-.981-.287-1.292-1.699L182.554.072h-.958l-2.918 13.877c-.336 1.555-.503 1.914-1.149 2.105l-.407.12v.43h3.421v-.43l-.502-.096c-.718-.144-.909-.526-.55-2.345l1.723-8.876 1.889 9.403c.288 1.363.264 1.627-.765 1.818l-.502.096v.43h12.68V11.15h-.454c-.24 2.512-.742 4.881-2.776 4.881h-.957V1.7Zm-7.465 10.455v-.646h-3.23l-.095.646h3.325Zm-13.35-10.168v11.436c0 1.723 0 2.537-.861 2.68l-.431.072v.43h3.517v-.43c-1.531-.215-1.531-.742-1.531-2.608V2.704l-.574-.527 5.861 14.427h1.005V3.302c0-1.962 0-2.393.957-2.656l.335-.096V.12h-3.613v.43l.407.096c1.22.215 1.22.694 1.22 2.512v8.326l.24-.072L171.596.12h-3.422V.55l.335.096c.383.12.598.55 1.005 1.34ZM161.833.694h.958c.957 0 1.842.622 1.842 3.732 0 3.182-.67 3.493-2.01 3.493h-.79V.694Zm-15.934 7.513c0 6.914-.574 7.895-1.818 7.895-1.244 0-1.795-.981-1.795-7.848 0-6.651.599-7.608 1.795-7.608 1.244 0 1.818.957 1.818 7.56Zm2.608.143c0-4.57-1.459-8.35-4.426-8.35-2.991 0-4.403 3.78-4.403 8.35 0 4.594 1.46 8.374 4.403 8.374 3.039 0 4.426-3.78 4.426-8.374ZM138.267 1.7c0-.67.168-.885.646-1.005l.526-.144V.12h-4.952v.43l.598.144c.478.12.742.287.742.98v11.509c0 1.603-.144 2.895-1.34 2.895-.766 0-1.34-.598-1.316-1.029.071-.742 1.316-.694 1.411-1.89.072-.861-.478-1.22-.981-1.292-.741-.096-1.65.526-1.675 1.77-.024 1.604 1.029 3.063 2.824 3.063 1.986 0 3.517-1.34 3.517-3.9V1.699Zm-79.912 0c0-.67.215-.885.694-.981l.646-.144V.119h-4.977V.55l.527.144c.478.143.693.335.693 1.005v13.398c0 .646-.263 1.005-1.005 1.005-.86 0-1.005-.287-1.316-1.699L50.556.072h-.957L46.68 13.949c-.335 1.555-.503 1.914-1.148 2.105l-.407.12v.43h3.421v-.43l-.502-.096c-.718-.144-.91-.526-.55-2.345l1.722-8.924 1.89 9.45c.263 1.364.263 1.628-.765 1.819l-.503.096v.43h12.705V11.15h-.455c-.239 2.512-.741 4.881-2.775 4.881h-.957V1.7ZM124.964.694h.526c1.484 0 1.986 2.368 2.154 4.88h.454V.12h-8.685v5.456h.455c.168-2.513.67-4.881 2.153-4.881h.527V15c0 .67-.215.91-.694 1.03l-.622.143v.43h5.168v-.43l-.742-.168c-.455-.12-.694-.263-.694-1.005V.694ZM114.03 8.326l.742.024c1.076.024 1.387.43 1.603 3.039h.454V4.737h-.454c-.264 2.082-.551 2.967-1.579 2.991l-.766.024V.694h1.651c1.842 0 2.249 2.32 2.512 4.88h.455V.12h-8.255V.55l.527.144c.55.143.694.479.694 1.029V15c0 .67-.215.91-.694 1.03l-.527.143v.43h8.494V11.15h-.455c-.287 2.489-.598 4.881-2.751 4.881h-1.651V8.326Zm-9.02 0 .742.024c1.076.024 1.387.43 1.603 3.039h.454V4.737h-.454c-.263 2.082-.55 2.967-1.579 2.991l-.766.024V.694h1.651c1.842 0 2.249 2.368 2.512 4.88h.455V.12h-8.494V.55l.766.144c.55.143.694.479.694 1.029V15c0 .67-.216.91-.694 1.03l-.527.143v.43h8.494V11.15h-.454c-.288 2.489-.599 4.881-2.752 4.881h-1.651V8.326ZM95.176.694h.718c.957 0 1.843.622 1.843 3.732 0 3.134-.67 3.493-2.01 3.493h-.55V.694Zm-3.612 15.91h4.833v-.43l-.527-.12c-.478-.12-.694-.383-.694-1.053V8.494h.886c.694 0 1.053.287 1.1 1.627l.12 3.062c.096 2.751.885 3.517 2.225 3.517 1.364 0 1.723-.933 1.723-2.249v-.55h-.503v.406c0 .886-.119 1.508-.454 1.508-.311 0-.335-.24-.407-1.34l-.144-2.105c-.191-2.895-.574-3.805-2.631-4.188 1.985-.526 3.206-1.985 3.206-4.067 0-2.704-2.13-3.996-4.163-3.996h-4.57V.55l.526.144c.479.143.694.335.694 1.005V15c0 .67-.215.91-.694 1.03l-.526.143v.43ZM87.904.694h.526c1.483 0 1.985 2.368 2.153 4.88h.454V.12h-8.685v5.456h.455c.167-2.513.67-4.881 2.153-4.881h.527V15c0 .67-.216.91-.694 1.03l-.622.143v.43h5.048v-.43l-.622-.144c-.622-.143-.694-.622-.694-1.029V.694Zm-5.528 11.628c0-4.905-5.383-6.197-5.383-9.762 0-.766.287-1.914 1.483-1.914 1.723 0 2.37 2.225 2.656 4.929h.455V.119H81.3c-.12.527-.335.766-.646.766-.55 0-.838-.861-2.154-.861-2.033 0-3.421 1.699-3.421 3.924 0 4.043 5.383 5.742 5.383 9.474 0 1.699-.79 2.656-1.866 2.656-1.603 0-2.656-1.89-2.943-4.929H75.2v5.455h.287c.239-.79.55-.86.813-.86.455 0 .933.956 2.32.956 2.13 0 3.757-1.842 3.757-4.378ZM66.705 1.699c0-.67.215-.885.694-.981l.646-.144V.119h-4.977V.55l.527.144c.478.143.693.335.693 1.005V15c0 .67-.215.91-.693 1.03l-.527.143v.43h7.824V11.15h-.455c-.239 2.512-.741 4.881-2.775 4.881h-.957V1.7Zm-15.84 10.455v-.646h-3.229l-.096.646h3.326Zm-13.828 4.498h.981l2.225-11.771h-.335l2.44 11.771h.862l2.919-13.877c.31-1.46.478-1.961 1.053-2.105l.454-.12V.12h-3.373v.43l.502.096c.718.143.885.574.55 2.344l-1.89 9.308h.287l-1.914-9.81c-.191-.933-.31-1.699.479-1.842l.526-.096V.12h-4.618v.43l.311.072c.48.12.55.407.742 1.316l.742 3.565-.144-2.154-1.65 8.71h.215l-1.938-9.57c-.216-.982-.288-1.723.478-1.867l.36-.072V.12h-4.714v.43l.454.12c.43.12.67.335.958 1.65l3.038 14.332ZM24.261 8.326l.741.024c1.077.024 1.388.43 1.603 3.039h.455V4.737h-.455c-.263 2.082-.55 2.967-1.579 2.991l-.765.024V.694h1.65c1.843 0 2.25 2.368 2.513 4.88h.454V.12h-8.254V.55l.526.144c.55.143.694.479.694 1.029V15c0 .67-.215.91-.694 1.03l-.526.143v.43h8.494V11.15h-.455c-.287 2.489-.598 4.881-2.752 4.881h-1.65V8.326ZM9.21 16.604h4.905v-.43l-.55-.12c-.43-.095-.718-.383-.718-1.053V8.47h3.613V15c0 .67-.287.958-.718 1.053l-.55.12v.43h4.905v-.43l-.527-.144c-.478-.12-.694-.383-.694-1.053V1.7c0-.67.216-.885.694-1.005l.527-.144V.12h-4.905v.43l.55.144c.407.12.718.287.718.98v6.15h-3.613v-6.15c0-.67.263-.86.718-.98l.55-.144V.12H9.211v.43l.527.144c.478.143.693.335.693 1.005V15c0 .67-.215.91-.693 1.03l-.527.143v.43ZM5.551.694h.526c1.483 0 1.986 2.368 2.153 4.88h.455V.12H0v5.456h.455C.622 3.062 1.125.694 2.608.694h.526V15c0 .67-.215.91-.694 1.03l-.622.143v.43h5.168v-.43l-.741-.168c-.455-.12-.694-.263-.694-1.005V.694Z"/></g><defs><clipPath id="a"><path fill="#fff" d="M0 0h197.363v16.724H0z"/></clipPath></defs></svg>